<?xml version="1.0" encoding="utf-8"?>
<!-- Generator: Adobe Illustrator 17.0.0, SVG Export Plug-In . SVG Version: 6.00 Build 0)  -->
<!DOCTYPE svg PUBLIC "-//W3C//DTD SVG 1.1//EN" "http://www.w3.org/Graphics/SVG/1.1/DTD/svg11.dtd">
<svg version="1.1" id="Layer_1" xmlns="http://www.w3.org/2000/svg" xmlns:xlink="http://www.w3.org/1999/xlink" x="0px" y="0px"
	 width="1200px" height="1200px" viewBox="0 0 1200 1200" enable-background="new 0 0 1200 1200" xml:space="preserve">
<g>
	<path fill="#282727" d="M987.904,1065.434H135.183c4.848,20.7,52.219,39.337,126.146,52.968c-1.588,3.007-2.564,6.388-2.564,10.018
		c0,11.922,9.669,21.58,21.602,21.58h562.368c11.911,0,21.586-9.658,21.586-21.58c0-3.63-0.976-7.012-2.573-10.018
		C935.68,1104.771,983.046,1086.133,987.904,1065.434z"/>
	<path fill="#282727" d="M932.399,363.03c3.356-26.793,5.502-51.502,6.214-73.21H184.464c6.119,186.02,113.112,585.6,259.62,739.082
		h234.91c57.01-59.731,107.994-156.779,149.421-263.961c8.878,1.151,17.872,1.947,27.051,1.947
		c115.427,0,209.351-93.909,209.351-209.346C1064.817,469.282,1009.828,393.768,932.399,363.03z M855.465,703.549
		c-1.561,0-3.06-0.185-4.6-0.227c32.089-93.725,56.677-191.031,71.611-275.371c46.865,24.335,79.007,73.241,79.007,129.592
		C1001.482,638.052,935.98,703.549,855.465,703.549z"/>
	<g>
		<path fill="#282727" d="M631.581,89.051c15.408,16.628,7.765,38.003-1.498,56.514c-5.671,11.362-14.017,22.989-15.124,37.085
			c-1.662,20.563,22.003,30.305,32.585,34.995c4.917,2.168-3.482,17.314-7.671,15.462c-21.095-9.353-42.048-23.512-32.453-56.461
			c6.605-22.725,43.452-61.799,22.736-84.166C626.59,88.623,627.925,85.106,631.581,89.051L631.581,89.051z"/>
		<path fill="#282727" d="M493.765,73.98c15.42,16.627,7.76,37.992-1.482,56.513c-5.687,11.363-14.037,22.995-15.15,37.086
			c-1.641,20.557,22.008,30.311,32.596,34.99c4.906,2.174-3.493,17.319-7.671,15.467c-21.106-9.358-42.049-23.512-32.475-56.466
			c6.637-22.725,43.479-61.799,22.758-84.16C488.775,73.552,490.109,70.029,493.765,73.98L493.765,73.98z"/>
		<path fill="#282727" d="M558.139,52.415c17.097,23.195,8.604,53.016-1.645,78.848c-6.299,15.847-15.541,32.089-16.791,51.75
			c-1.815,28.671,24.392,42.276,36.135,48.822c5.428,3.039-3.877,24.16-8.509,21.571c-23.38-13.04-46.607-32.801-35.972-78.78
			c7.338-31.704,48.168-86.228,25.199-117.431C552.61,51.819,554.087,46.907,558.139,52.415L558.139,52.415z"/>
	</g>
</g>
</svg>
